<svg id="sysmex_standard_logo_claim_rechts--rgb" xmlns="http://www.w3.org/2000/svg" xmlns:xlink="http://www.w3.org/1999/xlink" viewBox="0 0 1207.22 349.35"><defs><style>.cls-1{fill:#005ea8;}.cls-2{fill:url(#Unbenannter_Verlauf_6);}.cls-3{fill:url(#Unbenannter_Verlauf_13);}.cls-4{fill:url(#Unbenannter_Verlauf_29);}.cls-5{fill:url(#Unbenannter_Verlauf_22);}.cls-6{fill:#1a171b;}.cls-7{fill:#1bbbe9;}</style><linearGradient id="Unbenannter_Verlauf_6" x1="44" y1="122.89" x2="180.63" y2="122.89" gradientUnits="userSpaceOnUse"><stop offset="0" stop-color="#0091d5"/><stop offset="0.06" stop-color="#0396d7"/><stop offset="0.38" stop-color="#10aae1"/><stop offset="0.7" stop-color="#18b7e7"/><stop offset="1" stop-color="#1bbbe9"/></linearGradient><linearGradient id="Unbenannter_Verlauf_13" x1="90.65" y1="154.5" x2="244.57" y2="154.5" gradientUnits="userSpaceOnUse"><stop offset="0" stop-color="#1bbbe9"/><stop offset="0.29" stop-color="#17b5e6"/><stop offset="0.67" stop-color="#0da5de"/><stop offset="1" stop-color="#0091d5"/></linearGradient><linearGradient id="Unbenannter_Verlauf_29" x1="259.03" y1="117.32" x2="395.66" y2="117.32" gradientUnits="userSpaceOnUse"><stop offset="0" stop-color="#a3c646"/><stop offset="0.16" stop-color="#9fc546"/><stop offset="0.33" stop-color="#92c246"/><stop offset="0.51" stop-color="#7ebd46"/><stop offset="0.68" stop-color="#61b546"/><stop offset="0.86" stop-color="#3cac45"/><stop offset="1" stop-color="#17a345"/></linearGradient><linearGradient id="Unbenannter_Verlauf_22" x1="195.09" y1="85.7" x2="349.03" y2="85.7" gradientUnits="userSpaceOnUse"><stop offset="0" stop-color="#a3c646"/><stop offset="0.13" stop-color="#9ac446"/><stop offset="0.35" stop-color="#82be46"/><stop offset="0.62" stop-color="#5ab445"/><stop offset="0.93" stop-color="#23a645"/><stop offset="1" stop-color="#17a345"/></linearGradient></defs><title>sysmex_standard_logo_claim--rgb</title><path class="cls-1" d="M738.9,260.71l-20.08-28.83a78.45,78.45,0,0,0-18.36,28.83H678.23c5-14.54,14.57-29.1,29.84-43.68l-30.2-40.83h24l20,28.67a67.15,67.15,0,0,0,17.59-28.67h21.66c-6.58,20.4-17.89,33.31-28.72,43.21L763,260.71Z"/><path class="cls-1" d="M387.32,176.2h-22L348.6,214.85c-8.51-8.89-16.66-24.33-19.48-38.65H306.94a117,117,0,0,0,32.82,56.61l-14.54,27.9h22.32Z"/><path class="cls-1" d="M420.55,262.55a85.64,85.64,0,0,1-30.34-6.3L395.85,240c6.2,3.2,13.87,6,22.45,6.17,8,.14,14-1.23,14-9,0-5.22-4.5-7.56-18.59-12.23-13.66-4.53-22.94-10.56-22.94-25.54,0-17.41,15.26-25,29.47-25,9.22,0,21.69,2,28.42,5.07l-5.4,15.7c-5.64-2-12.44-3.83-18.36-4.08-7.47-.3-13.77,1.72-13.77,7.79,0,5.89,4.31,7.64,21.58,13.28,10.75,3.49,20.32,8.87,20.32,23.66C453,254.58,436.39,262.55,420.55,262.55Z"/><path class="cls-1" d="M270.8,262.55a85.78,85.78,0,0,1-30.35-6.3L246.08,240c6.22,3.2,13.89,6,22.45,6.17,8,.14,14-1.23,14-9,0-5.22-4.5-7.56-18.59-12.23C250.28,220.39,241,214.36,241,199.38c0-17.41,15.25-25,29.47-25,9.22,0,21.69,2,28.4,5.07l-5.4,15.7c-5.63-2-12.42-3.83-18.34-4.08-7.47-.3-13.77,1.72-13.77,7.79,0,5.89,4.31,7.64,21.58,13.28,10.74,3.49,20.32,8.87,20.32,23.66C303.26,254.58,286.62,262.55,270.8,262.55Z"/><path class="cls-1" d="M559.25,260.71v-53c0-9.46-3.58-15.53-12.91-15.53-5.18,0-8.5,1.65-12.92,4.23a49.1,49.1,0,0,1,.68,10v54.37H513.47v-53.2c0-9.44-4.18-15.36-12.69-15.36-4.77,0-8,1.32-12.79,3.55a27.9,27.9,0,0,1,.33,3.71v61.3H467.67V193.84a71.41,71.41,0,0,0-1-11c12.32-4.54,25.78-8.44,36.14-8.44,11.65,0,17.77,1.86,23.52,7.78,7.59-4.23,14.18-7.78,26-7.78,18.22,0,27.59,10.81,27.59,29.22v57.07Z"/><path class="cls-1" d="M671.71,225.74H615.59c1,11.71,10,20.17,23.85,20.33,8.81.1,16.09-2.46,23.12-6.41l6.61,15.08c-9.3,5.43-21.5,7.81-30.94,7.81-26.79,0-43.6-17.72-43.6-43.88,0-24.5,15.07-44.25,40.52-44.25,25.05,0,37.45,19.54,37.45,40.35A62.14,62.14,0,0,1,671.71,225.74Zm-36.83-35.17c-11.13,0-18.78,9.34-19.29,19.48h37.07C652.47,199.41,646.53,190.57,634.88,190.57Z"/><path class="cls-2" d="M44,118.25c-.06.87.81,2.09,3.24,4.74a117.41,117.41,0,0,0,20.29,17.47,53.4,53.4,0,0,0,23.75,8c12.22,1.13,29.05-3.47,48.7-13.29A283.94,283.94,0,0,0,180.63,110l-8.06-2.83c-45.61-16-98-12.82-126.34,8.24C44.82,116.48,44.1,117.26,44,118.25Z"/><path class="cls-3" d="M244.57,132.48s-71.29,55-75.79,58.4-6.4,4.68-9.38,5.17a13.68,13.68,0,0,1-9.61-2.29L90.65,155.44c31,2.86,76.2-25.95,97.86-42.65Z"/><path class="cls-4" d="M395.66,122c.06-.87-.82-2.1-3.22-4.75-2.65-2.87-11.05-11.48-20.3-17.46a53.65,53.65,0,0,0-23.76-8c-12.22-1.14-29.05,3.47-48.7,13.28A283.39,283.39,0,0,0,259,130.19s7,2.46,8.06,2.81c45.61,16,98,12.81,126.36-8.23C394.84,123.71,395.58,123,395.66,122Z"/><path class="cls-5" d="M195.09,107.72s71.29-54.95,75.79-58.39,6.4-4.69,9.4-5.18a13.73,13.73,0,0,1,9.59,2.29L349,84.77c-31.06-2.86-76.22,26-97.9,42.64Z"/><rect class="cls-6" x="805.94" y="174.19" width="2.19" height="91.24"/><path class="cls-6" d="M851.43,178.61h5.06v25.68h11.36v4.12H851.43Z"/><path class="cls-6" d="M872.46,180.36a3.11,3.11,0,1,1,3.08,3A3.06,3.06,0,0,1,872.46,180.36Zm.71,6.39H878v21.66h-4.79Z"/><path class="cls-6" d="M883.19,213.15c0-2.42,1.52-4.21,3.67-5.41a3.44,3.44,0,0,1-1.93-3.27,4.42,4.42,0,0,1,2.33-3.76,7.23,7.23,0,0,1-3.85-6.57c0-4.61,3.49-7.92,9.22-7.92a11.81,11.81,0,0,1,3.62.53h7.52v3.31h-3.13a7.42,7.42,0,0,1,1.21,4.08c0,4.56-3.36,7.87-9.09,7.87a14.81,14.81,0,0,1-2.46-.22c-.76.4-1.12.85-1.12,1.47,0,1.17,1.3,1.52,3.81,1.61,4.61.27,10.69.14,10.69,6.67,0,4.52-4.92,7.52-11.36,7.52C886.86,219.06,883.19,217.27,883.19,213.15Zm15.7-1.21c0-2.77-2.5-2.77-5.37-2.95-1.16-.09-2.41-.14-3.49-.31a4.29,4.29,0,0,0-2.28,3.71c0,1.88,1.43,3.31,4.83,3.31C896.48,215.7,898.89,214.13,898.89,211.94Zm-1.74-17.8a4.52,4.52,0,1,0-4.52,4.51A4.22,4.22,0,0,0,897.15,194.14Z"/><path class="cls-6" d="M908.06,176.19h4.74v13.38a8.89,8.89,0,0,1,6.89-3.35c4.65,0,6.44,3,6.44,6.89v15.3h-4.74V194.09c0-2.42-.85-3.8-3.31-3.8-2.73,0-4.83,2.68-5.28,3.26v14.86h-4.74Z"/><path class="cls-6" d="M933.69,202.64V190.38H930.2v-3.63h3.49v-6.22h4.74v6.22h5.23v3.63h-5.23v11.5c0,2.14.58,3.13,2.32,3.13a5.61,5.61,0,0,0,2.87-.9l1.34,3.58a10.16,10.16,0,0,1-5.06,1.25C935.48,208.94,933.69,206.53,933.69,202.64Z"/><path class="cls-6" d="M948.58,180.36a3.11,3.11,0,1,1,3.09,3A3.06,3.06,0,0,1,948.58,180.36Zm.71,6.39h4.79v21.66h-4.79Z"/><path class="cls-6" d="M960.88,186.75h4.7v2.91a8.83,8.83,0,0,1,6.93-3.44c4.65,0,6.44,3,6.44,6.89v15.3h-4.74V194.09c0-2.42-.85-3.8-3.31-3.8-2.15,0-4.07,1.65-5.23,3.26v14.86h-4.79Z"/><path class="cls-6" d="M983.69,213.15c0-2.42,1.52-4.21,3.67-5.41a3.44,3.44,0,0,1-1.93-3.27,4.42,4.42,0,0,1,2.33-3.76,7.23,7.23,0,0,1-3.85-6.57c0-4.61,3.49-7.92,9.22-7.92a11.81,11.81,0,0,1,3.62.53h7.52v3.31h-3.13a7.42,7.42,0,0,1,1.21,4.08c0,4.56-3.36,7.87-9.09,7.87a14.81,14.81,0,0,1-2.46-.22c-.76.4-1.12.85-1.12,1.47,0,1.17,1.3,1.52,3.81,1.61,4.6.27,10.69.14,10.69,6.67,0,4.52-4.92,7.52-11.36,7.52C987.36,219.06,983.69,217.27,983.69,213.15Zm15.7-1.21c0-2.77-2.5-2.77-5.37-2.95-1.16-.09-2.41-.14-3.49-.31a4.29,4.29,0,0,0-2.28,3.71c0,1.88,1.43,3.31,4.83,3.31C997,215.7,999.39,214.13,999.39,211.94Zm-1.74-17.8a4.52,4.52,0,1,0-4.52,4.51A4.22,4.22,0,0,0,997.65,194.14Z"/><path class="cls-6" d="M1019.2,202.64V190.38h-3.49v-3.63h3.49v-6.22h4.74v6.22h5.24v3.63h-5.24v11.5c0,2.14.58,3.13,2.33,3.13a5.57,5.57,0,0,0,2.86-.9l1.35,3.58a10.23,10.23,0,0,1-5.06,1.25C1021,208.94,1019.2,206.53,1019.2,202.64Z"/><path class="cls-6" d="M1034.36,176.19h4.74v13.38a8.91,8.91,0,0,1,6.89-3.35c4.66,0,6.45,3,6.45,6.89v15.3h-4.75V194.09c0-2.42-.85-3.8-3.31-3.8-2.73,0-4.83,2.68-5.28,3.26v14.86h-4.74Z"/><path class="cls-6" d="M1057.08,197.45c0-6.63,4.34-11.23,10.25-11.23s9,3.84,9,10.2c0,.58,0,1.25-.09,1.88h-14.13c.22,3.84,1.92,6.93,6.13,6.93a11,11,0,0,0,5.77-1.7l1.65,3.27a13.78,13.78,0,0,1-7.78,2.14C1060.84,208.94,1057.08,204.11,1057.08,197.45Zm14.59-2.55c-.09-2.73-1.26-5.06-4.43-5.06-2.91,0-4.52,2-5.06,5.06Z"/><path class="cls-6" d="M1088.08,186.75h5.1l3.89,14.95h.09l4.29-14.95h4.48l4.34,15h.09l3.93-15H1119l-6.31,21.66h-4.3l-4.83-15.53h-.09l-4.87,15.53h-4.3Z"/><path class="cls-6" d="M1121.49,203c0-5.64,6-7.56,11.54-7.56h.85v-1.57c0-2.59-1.12-3.71-3.89-3.71a8.33,8.33,0,0,0-5.55,2.19l-2.24-3a12,12,0,0,1,8.28-3c5.37,0,8.14,2.28,8.14,7.65v8.81a27.25,27.25,0,0,0,.54,5.73h-4.7a22.35,22.35,0,0,1-.36-2.46,8,8,0,0,1-6.26,3C1124.22,208.94,1121.49,206.71,1121.49,203Zm12.39-.09v-4.34H1133c-4,0-6.8,1.12-6.8,4.16a2.6,2.6,0,0,0,2.86,2.6A6,6,0,0,0,1133.88,202.86Z"/><path class="cls-6" d="M1141.93,218.52l.67-3.8a9.16,9.16,0,0,0,1.92.17c3,0,4.16-1.56,5.15-4.29l.94-2.51-8.15-21.34h5.15l5.46,15.62h.13l5.1-15.62h4.92l-9,24.21c-1.74,4.65-3.8,7.87-9.44,7.87A10,10,0,0,1,1141.93,218.52Z"/><path class="cls-7" d="M849.38,239h5.1l3.89,15h.09l4.29-15h4.48l4.34,15h.09l3.93-15h4.75L874,260.7h-4.3l-4.83-15.53h-.09l-4.87,15.53h-4.3Z"/><path class="cls-7" d="M884,232.65a3.11,3.11,0,1,1,3.09,3A3.06,3.06,0,0,1,884,232.65Zm.71,6.39h4.79V260.7h-4.79Z"/><path class="cls-7" d="M897.5,254.93V242.67H894V239h3.49v-6.22h4.75V239h5.23v3.63h-5.23v11.5c0,2.14.58,3.13,2.32,3.13a5.65,5.65,0,0,0,2.87-.9l1.34,3.58a10.23,10.23,0,0,1-5.06,1.25C899.29,261.23,897.5,258.82,897.5,254.93Z"/><path class="cls-7" d="M912.66,228.49h4.75v13.37a8.89,8.89,0,0,1,6.89-3.35c4.65,0,6.44,3,6.44,6.89v15.3H926V246.38c0-2.42-.85-3.8-3.31-3.8-2.73,0-4.84,2.68-5.28,3.26V260.7h-4.75Z"/><path class="cls-7" d="M944.69,249.92c0-6.89,4.11-11.41,9.62-11.41a7.78,7.78,0,0,1,5.23,1.7V228.49h4.74v26.79a24.22,24.22,0,0,0,.63,5.42h-4.7a11.37,11.37,0,0,1-.45-2.42,7.69,7.69,0,0,1-6.17,3C948.27,261.23,944.69,257.16,944.69,249.92Zm14.85,4.83V244a6.08,6.08,0,0,0-4.38-1.66c-3.49,0-5.42,3-5.42,7.52s1.57,7.43,5.15,7.43A6,6,0,0,0,959.54,254.75Z"/><path class="cls-7" d="M970.23,232.65a3.11,3.11,0,1,1,3.08,3A3.06,3.06,0,0,1,970.23,232.65Zm.71,6.39h4.79V260.7h-4.79Z"/><path class="cls-7" d="M981,255.24c0-5.64,6-7.56,11.55-7.56h.85v-1.57c0-2.59-1.12-3.71-3.9-3.71a8.28,8.28,0,0,0-5.54,2.19l-2.24-3a12,12,0,0,1,8.28-3c5.37,0,8.14,2.28,8.14,7.65V255a27.25,27.25,0,0,0,.54,5.73H994a20.19,20.19,0,0,1-.36-2.46,8,8,0,0,1-6.26,3C983.73,261.23,981,259,981,255.24Zm12.4-.09v-4.34h-.85c-4,0-6.8,1.12-6.8,4.16a2.6,2.6,0,0,0,2.86,2.6A6,6,0,0,0,993.4,255.15Z"/><path class="cls-7" d="M1002.83,265.44c0-2.42,1.52-4.21,3.67-5.41a3.44,3.44,0,0,1-1.92-3.27,4.42,4.42,0,0,1,2.32-3.76,7.23,7.23,0,0,1-3.85-6.57c0-4.61,3.49-7.92,9.22-7.92a11.92,11.92,0,0,1,3.63.53h7.51v3.31h-3.13a7.42,7.42,0,0,1,1.21,4.08c0,4.56-3.36,7.87-9.08,7.87a15,15,0,0,1-2.47-.22c-.76.4-1.11.85-1.11,1.47,0,1.17,1.29,1.52,3.8,1.61,4.61.27,10.69.14,10.69,6.67,0,4.52-4.92,7.52-11.36,7.52C1006.5,271.35,1002.83,269.56,1002.83,265.44Zm15.7-1.21c0-2.77-2.5-2.77-5.36-3-1.17-.09-2.42-.14-3.49-.31a4.3,4.3,0,0,0-2.29,3.71c0,1.88,1.44,3.31,4.84,3.31C1016.12,268,1018.53,266.42,1018.53,264.23Zm-1.74-17.8a4.52,4.52,0,1,0-4.52,4.51A4.22,4.22,0,0,0,1016.79,246.43Z"/><path class="cls-7" d="M1027.79,239h4.7V242a8.83,8.83,0,0,1,6.93-3.44c4.65,0,6.44,3,6.44,6.89v15.3h-4.74V246.38c0-2.42-.85-3.8-3.31-3.8-2.15,0-4.07,1.65-5.23,3.26V260.7h-4.79Z"/><path class="cls-7" d="M1050.51,249.92c0-5.33,2.91-11.41,10.38-11.41s10.69,6,10.69,11.27-3.18,11.45-10.6,11.45S1050.51,255.24,1050.51,249.92Zm16,0c0-4.3-1.84-7.7-5.73-7.7s-5.28,3.27-5.28,7.56,1.65,7.7,5.5,7.7S1066.53,254.26,1066.53,249.92Z"/><path class="cls-7" d="M1074.57,259.18l1.75-3.4a9.61,9.61,0,0,0,5.32,1.79c2.46,0,3.94-.9,3.94-2.51s-2-2.28-5.15-3.71-5.32-3-5.32-6.49c0-3.76,2.91-6.35,7.51-6.35a12,12,0,0,1,6.71,1.88l-1.87,3.31a8.5,8.5,0,0,0-4.7-1.48c-2.19,0-3.27.89-3.27,2.37,0,1.75,1.88,2.33,4.3,3.31,3.49,1.43,6.31,3,6.31,6.67,0,4.25-3.18,6.71-8.24,6.71A12.59,12.59,0,0,1,1074.57,259.18Z"/><path class="cls-7" d="M1096.13,254.93V242.67h-3.49V239h3.49v-6.22h4.74V239h5.24v3.63h-5.24v11.5c0,2.14.58,3.13,2.33,3.13a5.57,5.57,0,0,0,2.86-.9l1.34,3.58a10.15,10.15,0,0,1-5.05,1.25C1097.92,261.23,1096.13,258.82,1096.13,254.93Z"/><path class="cls-7" d="M1111,232.65a3.11,3.11,0,1,1,3.09,3A3.06,3.06,0,0,1,1111,232.65Zm.72,6.39h4.79V260.7h-4.79Z"/><path class="cls-7" d="M1121.67,249.87c0-7.34,4.69-11.36,10.73-11.36a11.06,11.06,0,0,1,6.63,1.92l-1.75,3.36a7.92,7.92,0,0,0-4.79-1.53c-3.93,0-5.81,3.14-5.81,7.48s1.88,7.69,5.9,7.69a9.12,9.12,0,0,0,5-1.52l1.57,3.27a10.7,10.7,0,0,1-6.89,2.05C1125.56,261.23,1121.67,256.27,1121.67,249.87Z"/><path class="cls-7" d="M1141.7,259.18l1.75-3.4a9.61,9.61,0,0,0,5.32,1.79c2.46,0,3.94-.9,3.94-2.51s-2-2.28-5.15-3.71-5.32-3-5.32-6.49c0-3.76,2.91-6.35,7.52-6.35a12,12,0,0,1,6.71,1.88l-1.88,3.31a8.47,8.47,0,0,0-4.7-1.48c-2.19,0-3.26.89-3.26,2.37,0,1.75,1.87,2.33,4.29,3.31,3.49,1.43,6.31,3,6.31,6.67,0,4.25-3.18,6.71-8.23,6.71A12.63,12.63,0,0,1,1141.7,259.18Z"/></svg>
